<svg width="1408" height="1024" viewBox="0 0 1408 1024" fill="none" xmlns="http://www.w3.org/2000/svg">
<path d="M1408 0H0V1024H1408V0Z" fill="#415A77"/>
<path d="M0 856.714C119.249 856.714 246.742 963.484 259.698 1024C156.643 1024 0 1024 0 1024V856.714Z" fill="#1B263B"/>
<path d="M686.009 1024C674.276 604.16 1023.15 640 951.155 378.33C889.628 154.694 552.64 259.072 499.449 0C786.525 0 1408 0 1408 0V1024H686.009Z" fill="#1B263B"/>
<path d="M1408 0H1215.78C1202.53 27.3096 1194.84 59.711 1194.84 94.464C1194.84 191.878 1255.17 270.848 1329.58 270.848C1358.84 270.848 1385.91 258.638 1408 237.905V0Z" fill="#415A77"/>
</svg>
