<svg width="64" height="64" viewBox="0 0 64 64" fill="none" xmlns="http://www.w3.org/2000/svg">
<path d="M50.6667 8H13.3333C10.4 8 8 10.4 8 13.3333V50.6667C8 53.6 10.4 56 13.3333 56H50.6667C53.6 56 56 53.6 56 50.6667V13.3333C56 10.4 53.6 8 50.6667 8ZM20.48 39.9467H16V24H20.56C23.9733 24 25.12 26.7467 25.12 28.56V35.3867C25.12 37.2 24 39.9467 20.48 39.9467ZM33.0133 30.56V33.4133H29.8667V37.12H35.0133V39.9733H29.0133C27.9467 40 27.04 39.1467 27.0133 38.08V26C26.9867 24.9333 27.84 24.0267 28.9067 24H34.9867V26.8533H29.8667V30.56H33.0133ZM45.0133 37.9467C43.7333 40.9067 41.4667 40.32 40.4533 37.9467L36.72 24H39.8667L42.72 34.96L45.5733 24H48.72L45.0133 37.9467Z" fill="#55F2C3"/>
<path d="M20.72 26.9868H19.04V37.0402H20.72C21.0933 37.0402 21.4666 36.9068 21.84 36.6135C22.2133 36.3468 22.4 35.9202 22.4 35.3602V28.6401C22.4 28.0801 22.2133 27.6535 21.84 27.3868C21.5184 27.1383 21.1262 26.9983 20.72 26.9868Z" fill="#55F2C3"/>
</svg>
